<svg xmlns="http://www.w3.org/2000/svg" width="611.939" height="452.7" viewBox="0 0 611.939 452.7">
  <g id="Web_search-rafiki" data-name="Web search-rafiki" transform="translate(0 -53.82)">
    <g id="freepik--background-complete--inject-4" transform="translate(0 53.82)">
      <rect id="Rectangle_850" data-name="Rectangle 850" width="40.535" height="0.306" transform="translate(510.087 420.451)" fill="#ebebeb"/>
      <rect id="Rectangle_851" data-name="Rectangle 851" width="10.635" height="0.306" transform="translate(394.737 423.767)" fill="#ebebeb"/>
      <rect id="Rectangle_852" data-name="Rectangle 852" width="23.486" height="0.306" transform="translate(485.377 409.081)" fill="#ebebeb"/>
      <rect id="Rectangle_853" data-name="Rectangle 853" width="52.859" height="0.306" transform="translate(64.205 411.137)" fill="#ebebeb"/>
      <rect id="Rectangle_854" data-name="Rectangle 854" width="7.747" height="0.306" transform="translate(127.969 411.137)" fill="#ebebeb"/>
      <rect id="Rectangle_855" data-name="Rectangle 855" width="114.653" height="0.306" transform="translate(160.903 416.302)" fill="#ebebeb"/>
      <path id="Path_539" data-name="Path 539" d="M281.5,399.981H45.2a6.988,6.988,0,0,1-6.988-6.976V60.8A6.988,6.988,0,0,1,45.2,53.82H281.5a6.988,6.988,0,0,1,6.988,6.976V393.054a6.988,6.988,0,0,1-6.988,6.927ZM45.2,54.126a6.682,6.682,0,0,0-6.682,6.67V393.054a6.682,6.682,0,0,0,6.682,6.67H281.5a6.682,6.682,0,0,0,6.682-6.67V60.8a6.682,6.682,0,0,0-6.682-6.67Z" transform="translate(8.554 -53.82)" fill="#ebebeb"/>
      <path id="Path_540" data-name="Path 540" d="M497.819,399.981H261.488a7,7,0,0,1-6.988-6.976V60.8a7,7,0,0,1,6.988-6.976H497.819a6.988,6.988,0,0,1,6.988,6.976V393.054a6.988,6.988,0,0,1-6.988,6.927ZM261.488,54.126a6.682,6.682,0,0,0-6.682,6.67V393.054a6.682,6.682,0,0,0,6.682,6.67H497.819a6.682,6.682,0,0,0,6.682-6.67V60.8a6.682,6.682,0,0,0-6.682-6.67Z" transform="translate(56.977 -53.82)" fill="#ebebeb"/>
      <rect id="Rectangle_856" data-name="Rectangle 856" width="611.939" height="0.306" transform="translate(0 400.746)" fill="#ebebeb"/>
      <rect id="Rectangle_857" data-name="Rectangle 857" width="40.535" height="0.306" transform="translate(510.087 420.451)" fill="#ebebeb"/>
      <rect id="Rectangle_858" data-name="Rectangle 858" width="10.635" height="0.306" transform="translate(394.737 423.767)" fill="#ebebeb"/>
      <rect id="Rectangle_859" data-name="Rectangle 859" width="23.486" height="0.306" transform="translate(485.377 409.081)" fill="#ebebeb"/>
      <rect id="Rectangle_860" data-name="Rectangle 860" width="52.859" height="0.306" transform="translate(64.205 411.137)" fill="#ebebeb"/>
      <rect id="Rectangle_861" data-name="Rectangle 861" width="7.747" height="0.306" transform="translate(127.969 411.137)" fill="#ebebeb"/>
      <rect id="Rectangle_862" data-name="Rectangle 862" width="114.653" height="0.306" transform="translate(160.903 416.302)" fill="#ebebeb"/>
      <path id="Path_541" data-name="Path 541" d="M281.5,399.981H45.2a6.988,6.988,0,0,1-6.988-6.976V60.8A6.988,6.988,0,0,1,45.2,53.82H281.5a6.988,6.988,0,0,1,6.988,6.976V393.054a6.988,6.988,0,0,1-6.988,6.927ZM45.2,54.126a6.682,6.682,0,0,0-6.682,6.67V393.054a6.682,6.682,0,0,0,6.682,6.67H281.5a6.682,6.682,0,0,0,6.682-6.67V60.8a6.682,6.682,0,0,0-6.682-6.67Z" transform="translate(8.554 -53.82)" fill="#ebebeb"/>
      <path id="Path_542" data-name="Path 542" d="M497.819,399.981H261.488a7,7,0,0,1-6.988-6.976V60.8a7,7,0,0,1,6.988-6.976H497.819a6.988,6.988,0,0,1,6.988,6.976V393.054a6.988,6.988,0,0,1-6.988,6.927ZM261.488,54.126a6.682,6.682,0,0,0-6.682,6.67V393.054a6.682,6.682,0,0,0,6.682,6.67H497.819a6.682,6.682,0,0,0,6.682-6.67V60.8a6.682,6.682,0,0,0-6.682-6.67Z" transform="translate(56.977 -53.82)" fill="#ebebeb"/>
      <rect id="Rectangle_863" data-name="Rectangle 863" width="611.939" height="0.306" transform="translate(0 400.746)" fill="#ebebeb"/>
      <circle id="Ellipse_31" data-name="Ellipse 31" cx="28.039" cy="28.039" r="28.039" transform="translate(478.701 57.057) rotate(-45)" fill="#f0f0f0"/>
      <path id="Path_543" data-name="Path 543" d="M428.845,134.35a28.672,28.672,0,1,1,0-57.345v1.23a27.412,27.412,0,1,0,0,54.824Z" transform="translate(89.589 -48.629)" fill="#fff"/>
      <path id="Path_544" data-name="Path 544" d="M423.6,134.351v-1.224a27.412,27.412,0,1,0,0-54.824V77a28.672,28.672,0,1,1,0,57.345Z" transform="translate(94.834 -48.631)" fill="#fff"/>
      <path id="Path_545" data-name="Path 545" d="M438.306,105.665h-1.224c0-9.289-4.712-21.724-13.732-27.5l.685-1.065C433.386,83.1,438.306,96.033,438.306,105.665Z" transform="translate(94.778 -48.608)" fill="#fff"/>
      <path id="Path_546" data-name="Path 546" d="M424.005,128.318l-.685-1.065c9.02-5.777,13.732-18.211,13.732-27.513h1.224C438.312,109.384,433.393,122.284,424.005,128.318Z" transform="translate(94.772 -43.54)" fill="#fff"/>
      <path id="Path_547" data-name="Path 547" d="M412.884,105.668H411.66c0-9.632,4.9-22.544,14.307-28.578l.685,1.065C417.6,83.944,412.884,96.378,412.884,105.668Z" transform="translate(92.161 -48.61)" fill="#fff"/>
      <path id="Path_548" data-name="Path 548" d="M425.937,128.305c-9.387-6.021-14.307-18.933-14.307-28.565h1.224c0,9.289,4.712,21.724,13.732,27.513Z" transform="translate(92.155 -43.54)" fill="#fff"/>
      <rect id="Rectangle_864" data-name="Rectangle 864" width="1.261" height="56.078" transform="translate(517.798 29.018)" fill="#fff"/>
      <rect id="Rectangle_865" data-name="Rectangle 865" width="47.462" height="1.261" transform="translate(494.703 41.489)" fill="#fff"/>
      <rect id="Rectangle_866" data-name="Rectangle 866" width="56.054" height="1.261" transform="translate(490.408 56.898)" fill="#fff"/>
      <rect id="Rectangle_867" data-name="Rectangle 867" width="46.214" height="1.261" transform="translate(495.328 72.307)" fill="#fff"/>
      <path id="Path_549" data-name="Path 549" d="M236.784,306.83h8.567v86.308a4.3,4.3,0,0,1-4.3,4.3h0a4.3,4.3,0,0,1-4.3-4.3V306.83Z" transform="translate(53.005 2.823)" fill="#f0f0f0"/>
      <path id="Path_550" data-name="Path 550" d="M433.238,299.071H413.46v-1.762a6.021,6.021,0,0,1,6.34-6l7.747.416a6.009,6.009,0,0,1,5.691,6Z" transform="translate(92.564 -0.653)" fill="#f0f0f0"/>
      <path id="Path_551" data-name="Path 551" d="M406.717,264.768a2.913,2.913,0,0,0-2.913-2.778H383.855a2.925,2.925,0,0,0-2.925,2.778l4.749,41.612h29.814Z" transform="translate(85.282 -7.215)" fill="#e0e0e0"/>
      <path id="Path_552" data-name="Path 552" d="M449.242,212H441.8l-8.371,78.622h7.453a2.533,2.533,0,0,0,2.448-2.24l7.931-74.191A1.958,1.958,0,0,0,449.242,212Z" transform="translate(97.035 -18.407)" fill="#e0e0e0"/>
      <path id="Path_553" data-name="Path 553" d="M457.712,290.592H346.168a1.97,1.97,0,0,1-1.995-2.24l7.882-74.155a2.546,2.546,0,0,1,2.448-2.227H466.059a1.958,1.958,0,0,1,1.995,2.227l-7.821,74.155A2.546,2.546,0,0,1,457.712,290.592Z" transform="translate(77.048 -18.414)" fill="#f5f5f5"/>
      <path id="Path_554" data-name="Path 554" d="M454.8,282.816H349.611a1.713,1.713,0,0,1-1.738-1.946l6.878-64.694a2.227,2.227,0,0,1,2.154-1.946H462.1a1.726,1.726,0,0,1,1.75,1.946l-6.891,64.694a2.215,2.215,0,0,1-2.154,1.946Z" transform="translate(77.877 -17.908)" fill="#ebebeb"/>
      <rect id="Rectangle_868" data-name="Rectangle 868" width="39.898" height="3.231" rx="0.96" transform="translate(463.605 295.946)" fill="#e0e0e0"/>
      <path id="Path_555" data-name="Path 555" d="M349,275.593l31.27-27.17c2.962-2.57,6.768-2.57,8.481,0l18.113,27.17Z" transform="translate(78.133 -10.684)" fill="#e6e6e6"/>
      <path id="Path_556" data-name="Path 556" d="M380.233,248.4,349,275.567h29.973c-2.986-1.505-10.024-2.313-9.179-5.777,1.089-4.5,15.017-2.925,16.057-7.2s-8.91-2.937-7.649-8.114c.649-2.717,3.219-5.667,5.532-7.87A7.784,7.784,0,0,0,380.233,248.4Z" transform="translate(78.133 -10.659)" fill="#f5f5f5"/>
      <path id="Path_557" data-name="Path 557" d="M386.56,272.955l13.854-13.707c1.31-1.3,3-1.3,3.757,0l8.029,13.707Z" transform="translate(86.542 -8.047)" fill="#e6e6e6"/>
      <path id="Path_558" data-name="Path 558" d="M400.414,259.24,386.56,272.948h13.279c-1.322-.759-4.443-1.163-4.076-2.913.49-2.264,6.67-1.469,7.123-3.672s-3.941-1.469-3.39-4.088a9.717,9.717,0,0,1,2.448-3.965A3.268,3.268,0,0,0,400.414,259.24Z" transform="translate(86.542 -8.039)" fill="#f5f5f5"/>
      <path id="Path_559" data-name="Path 559" d="M405.93,272.955l19.411-13.707c1.848-1.3,4.21-1.3,5.275,0l11.247,13.707Z" transform="translate(90.878 -8.047)" fill="#f0f0f0"/>
      <path id="Path_560" data-name="Path 560" d="M425.341,259.24,405.93,272.948h18.615c-1.86-.759-6.23-1.163-5.7-2.913.673-2.264,9.326-1.469,9.975-3.672s-5.532-1.469-4.761-4.088a9.865,9.865,0,0,1,3.439-3.965,5.361,5.361,0,0,0-2.154.93Z" transform="translate(90.878 -8.039)" fill="#fafafa"/>
      <path id="Path_561" data-name="Path 561" d="M430.425,239.016c-1.469,6.9-8.249,12.5-15.139,12.5s-11.309-5.593-9.791-12.5,8.249-12.5,15.152-12.5S431.881,232.113,430.425,239.016Z" transform="translate(90.714 -15.156)" fill="#f0f0f0"/>
      <path id="Path_562" data-name="Path 562" d="M430.425,239.016c-1.469,6.9-8.249,12.5-15.139,12.5s-11.309-5.593-9.791-12.5,8.249-12.5,15.152-12.5S431.881,232.113,430.425,239.016Z" transform="translate(90.714 -15.156)" fill="#fafafa" opacity="0.8"/>
      <path id="Path_563" data-name="Path 563" d="M339.377,296.232h-2.79a.539.539,0,0,1-.526-.539v-2.937a.526.526,0,0,1,.526-.526h1.995a.526.526,0,0,1,.514.392l.8,2.937a.539.539,0,0,1-.514.673Z" transform="translate(75.236 -0.445)" fill="#f5f5f5"/>
      <path id="Path_564" data-name="Path 564" d="M342.517,296.232h-2.79a.539.539,0,0,1-.526-.539v-2.937a.526.526,0,0,1,.526-.526h2.007a.551.551,0,0,1,.514.392l.783,2.937a.539.539,0,0,1-.514.673Z" transform="translate(75.939 -0.445)" fill="#f5f5f5"/>
      <path id="Path_565" data-name="Path 565" d="M345.657,296.232h-2.778a.539.539,0,0,1-.539-.539v-2.937a.538.538,0,0,1,.539-.526h1.995a.539.539,0,0,1,.514.392l.783,2.937a.539.539,0,0,1-.514.673Z" transform="translate(76.642 -0.445)" fill="#f5f5f5"/>
      <path id="Path_566" data-name="Path 566" d="M348.8,296.232h-2.778a.539.539,0,0,1-.539-.539v-2.937a.539.539,0,0,1,.539-.526h1.995a.526.526,0,0,1,.514.392l.783,2.937a.539.539,0,0,1-.514.673Z" transform="translate(77.345 -0.445)" fill="#f5f5f5"/>
      <path id="Path_567" data-name="Path 567" d="M351.937,296.232h-2.778a.539.539,0,0,1-.538-.539v-2.937a.539.539,0,0,1,.538-.526h1.995a.526.526,0,0,1,.514.392l.783,2.937a.539.539,0,0,1-.514.673Z" transform="translate(78.048 -0.445)" fill="#f5f5f5"/>
      <path id="Path_568" data-name="Path 568" d="M355.077,296.232H352.3a.539.539,0,0,1-.539-.539v-2.937a.539.539,0,0,1,.539-.526h1.995a.526.526,0,0,1,.514.392l.783,2.937a.539.539,0,0,1-.514.673Z" transform="translate(78.751 -0.445)" fill="#f5f5f5"/>
      <path id="Path_569" data-name="Path 569" d="M358.214,296.232h-2.778a.539.539,0,0,1-.526-.539v-2.937a.526.526,0,0,1,.526-.526h2.032a.526.526,0,0,1,.514.392l.71,3a.526.526,0,0,1-.477.612Z" transform="translate(79.456 -0.445)" fill="#f5f5f5"/>
      <path id="Path_570" data-name="Path 570" d="M361.354,296.232h-2.778a.539.539,0,0,1-.526-.539v-2.937a.526.526,0,0,1,.526-.526h1.995a.526.526,0,0,1,.514.392l.783,2.937a.526.526,0,0,1-.514.673Z" transform="translate(80.159 -0.445)" fill="#f5f5f5"/>
      <path id="Path_571" data-name="Path 571" d="M364.507,296.232h-2.79a.539.539,0,0,1-.526-.539v-2.937a.526.526,0,0,1,.526-.526h1.995a.526.526,0,0,1,.514.392l.783,2.937a.526.526,0,0,1-.5.673Z" transform="translate(80.862 -0.445)" fill="#f5f5f5"/>
      <path id="Path_572" data-name="Path 572" d="M367.607,296.232h-2.79a.539.539,0,0,1-.526-.539v-2.937a.526.526,0,0,1,.526-.526h2.007a.526.526,0,0,1,.5.392l.8,2.937a.539.539,0,0,1-.514.673Z" transform="translate(81.556 -0.445)" fill="#f5f5f5"/>
      <path id="Path_573" data-name="Path 573" d="M370.787,296.232H368a.539.539,0,0,1-.526-.539v-2.937a.526.526,0,0,1,.526-.526H370a.539.539,0,0,1,.514.392l.783,2.937a.538.538,0,0,1-.514.673Z" transform="translate(82.268 -0.445)" fill="#f5f5f5"/>
      <path id="Path_574" data-name="Path 574" d="M373.927,296.232h-2.778a.539.539,0,0,1-.539-.539v-2.937a.539.539,0,0,1,.539-.526h1.995a.539.539,0,0,1,.514.392l.783,2.937a.539.539,0,0,1-.514.673Z" transform="translate(82.971 -0.445)" fill="#f5f5f5"/>
      <path id="Path_575" data-name="Path 575" d="M377.067,296.232h-2.778a.538.538,0,0,1-.538-.539v-2.937a.538.538,0,0,1,.538-.526h1.995a.526.526,0,0,1,.514.392l.783,2.937a.539.539,0,0,1-.514.673Z" transform="translate(83.674 -0.445)" fill="#f5f5f5"/>
      <path id="Path_576" data-name="Path 576" d="M380.207,296.232h-2.778a.538.538,0,0,1-.539-.539v-2.937a.539.539,0,0,1,.539-.526h2.044a.526.526,0,0,1,.514.392l.71,3a.538.538,0,0,1-.49.612Z" transform="translate(84.377 -0.445)" fill="#f5f5f5"/>
      <path id="Path_577" data-name="Path 577" d="M383.344,296.232h-2.778a.539.539,0,0,1-.526-.539v-2.937a.526.526,0,0,1,.526-.526h1.995a.526.526,0,0,1,.514.392l.783,2.937a.526.526,0,0,1-.514.673Z" transform="translate(85.082 -0.445)" fill="#f5f5f5"/>
      <rect id="Rectangle_869" data-name="Rectangle 869" width="62.197" height="4.626" transform="translate(409.032 293.779)" fill="#ebebeb"/>
      <rect id="Rectangle_870" data-name="Rectangle 870" width="74.522" height="11.247" transform="translate(474.644 298.418)" fill="#e6e6e6"/>
      <path id="Path_578" data-name="Path 578" d="M274.765,306.83h8.567v86.308a4.3,4.3,0,0,1-4.3,4.3h0a4.3,4.3,0,0,1-4.3-4.3V306.83Z" transform="translate(61.508 2.823)" fill="#e6e6e6"/>
      <path id="Path_579" data-name="Path 579" d="M441.928,397.434h0a4.308,4.308,0,0,1-4.308-4.3V306.83h8.567v86.308a4.3,4.3,0,0,1-4.259,4.3Z" transform="translate(97.973 2.823)" fill="#e6e6e6"/>
      <rect id="Rectangle_871" data-name="Rectangle 871" width="211.082" height="11.247" transform="translate(284.821 298.418)" fill="#f0f0f0"/>
      <path id="Path_580" data-name="Path 580" d="M422.946,387.129H311.854a17.134,17.134,0,0,1-17.134-17.134h0a17.134,17.134,0,0,1,17.134-17.134H422.946a17.134,17.134,0,0,1,17.134,17.134h0a17.134,17.134,0,0,1-17.134,17.134Z" transform="translate(65.981 13.128)" fill="#ebebeb"/>
      <path id="Path_581" data-name="Path 581" d="M394.1,306.83h8.567v86.308a4.3,4.3,0,0,1-4.3,4.3h0a4.3,4.3,0,0,1-4.3-4.3V306.83Z" transform="translate(88.225 2.823)" fill="#f0f0f0"/>
      <path id="Path_582" data-name="Path 582" d="M344.18,412.754a15.825,15.825,0,0,1-3.916.477H272.718a18.591,18.591,0,0,1-18.162-16.706L242.316,256.539a15.078,15.078,0,0,1,15.249-16.718H325.1a16.815,16.815,0,0,1,4,.477,18.652,18.652,0,0,1,14.16,16.241L355.5,396.526a15.017,15.017,0,0,1-11.321,16.229Z" transform="translate(54.229 -12.179)" fill="#ebebeb"/>
      <path id="Path_583" data-name="Path 583" d="M330.367,412.667a18.664,18.664,0,0,1-14.111-16.229L304.017,256.451a15.029,15.029,0,0,1,11.321-16.241,18.652,18.652,0,0,1,14.16,16.241l12.239,139.987a15.017,15.017,0,0,1-11.37,16.229Z" transform="translate(68.042 -12.092)" fill="#f5f5f5"/>
      <rect id="Rectangle_872" data-name="Rectangle 872" width="105.718" height="8.947" transform="translate(172.126 50.424)" fill="#fafafa"/>
      <rect id="Rectangle_873" data-name="Rectangle 873" width="105.718" height="8.947" transform="translate(177.022 329.15)" fill="#fafafa"/>
      <path id="Path_584" data-name="Path 584" d="M137.8,105.555V287.521a58.671,58.671,0,0,1,6.854-3.892l1.505-.71v1.371a.269.269,0,0,0,0,.1,1.015,1.015,0,0,0,.086.5,2.421,2.421,0,0,1,.122.514V105.494Zm114.53,286.387V87.87H137.73V391.906M243.6,96.6V383.179H146.456V96.6ZM137.8,105.543V287.521a58.671,58.671,0,0,1,6.854-3.892l1.505-.71v1.371a.269.269,0,0,0,0,.1,1.015,1.015,0,0,0,.086.5,2.421,2.421,0,0,1,.122.514V105.494Z" transform="translate(30.835 -46.197)" fill="#f0f0f0"/>
      <rect id="Rectangle_874" data-name="Rectangle 874" width="105.718" height="8.947" transform="translate(67.289 50.424)" fill="#fafafa"/>
      <rect id="Rectangle_875" data-name="Rectangle 875" width="105.718" height="8.947" transform="translate(63.617 329.15)" fill="#fafafa"/>
      <path id="Path_585" data-name="Path 585" d="M51.29,87.87V391.906h114.6V87.87ZM61.632,384.342V97.82l95.462-1.163h.073V383.179h-.073l-36.937.453h-1.04l-53.5.661Z" transform="translate(11.483 -46.197)" fill="#ebebeb"/>
    </g>
    <g id="freepik--Shadow--inject-4" transform="translate(62.773 478.811)">
      <ellipse id="freepik--path--inject-4" cx="237.298" cy="13.854" rx="237.298" ry="13.854" fill="#f5f5f5"/>
    </g>
    <g id="freepik--Window--inject-4" transform="translate(120.307 70.942)">
      <rect id="Rectangle_876" data-name="Rectangle 876" width="368.448" height="250.222" transform="translate(0 7.331)" fill="rgba(248,34,70,0.33)"/>
      <rect id="Rectangle_877" data-name="Rectangle 877" width="368.448" height="250.222" transform="translate(0 7.331)" fill="#fff" opacity="0.5"/>
      <path id="Path_586" data-name="Path 586" d="M98.3,73.8V91.044h53.324V84.423a5.96,5.96,0,0,1,5.96-5.96h49.334a5.96,5.96,0,0,1,5.96,5.96v6.621H466.748V73.8Z" transform="translate(-98.3 -66.469)" fill="#f82246"/>
      <path id="Path_587" data-name="Path 587" d="M112.311,81.563a3.965,3.965,0,1,1-3.965-3.953,3.965,3.965,0,0,1,3.965,3.953Z" transform="translate(-96.939 -65.616)" fill="#fff" opacity="0.7"/>
      <circle id="Ellipse_32" data-name="Ellipse 32" cx="3.953" cy="3.953" r="3.953" transform="translate(19.337 11.994)" fill="#fff" opacity="0.7"/>
      <path id="Path_588" data-name="Path 588" d="M131.721,81.563a3.965,3.965,0,1,1-1.179-2.809,3.965,3.965,0,0,1,1.179,2.809Z" transform="translate(-92.593 -65.616)" fill="#fff" opacity="0.7"/>
      <path id="Path_589" data-name="Path 589" d="M156.061,84.805A3.953,3.953,0,1,1,154.9,82,3.965,3.965,0,0,1,156.061,84.805Z" transform="translate(-87.144 -64.893)" fill="#fff" opacity="0.7"/>
      <rect id="Rectangle_878" data-name="Rectangle 878" width="368.448" height="199.235" transform="translate(0 58.306)" fill="#fff" opacity="0.2"/>
      <path id="Path_590" data-name="Path 590" d="M198.98,67.81H158.861c-.869,0-.991,1.346-.122,1.346h40.119C199.726,69.156,199.849,67.81,198.98,67.81Z" transform="translate(-84.902 -67.81)" fill="#f82246"/>
      <path id="Path_591" data-name="Path 591" d="M154.507,67.81H149.44c-.869,0-.979,1.346-.11,1.346H154.4C155.253,69.156,155.376,67.81,154.507,67.81Z" transform="translate(-87.01 -67.81)" fill="#f82246"/>
      <path id="Path_592" data-name="Path 592" d="M396.822,110.919H156.159a7.441,7.441,0,0,1-7.429-7.441h0A7.429,7.429,0,0,1,156.159,96H396.822a7.441,7.441,0,0,1,7.441,7.429h0a7.441,7.441,0,0,1-7.441,7.49Z" transform="translate(-87.01 -61.499)" fill="#fff"/>
      <path id="Path_593" data-name="Path 593" d="M150.971,137.472H112.076a7.686,7.686,0,0,1-7.686-7.686h0a7.686,7.686,0,0,1,7.686-7.686h38.895a7.686,7.686,0,0,1,7.686,7.686h0A7.686,7.686,0,0,1,150.971,137.472Z" transform="translate(-96.937 -55.656)" fill="#263238"/>
      <path id="Path_594" data-name="Path 594" d="M388.236,148.1H174.058a13,13,0,0,1-13-13h0a13,13,0,0,1,13-13H388.236a12.985,12.985,0,0,1,13,13h0a12.985,12.985,0,0,1-13,13Z" transform="translate(-84.249 -55.656)" fill="#fff"/>
      <rect id="Rectangle_879" data-name="Rectangle 879" width="35.627" height="35.627" transform="translate(302.212 123.244)" fill="#fff"/>
      <rect id="Rectangle_880" data-name="Rectangle 880" width="35.627" height="35.627" transform="translate(258.666 123.244)" fill="#fff"/>
      <rect id="Rectangle_881" data-name="Rectangle 881" width="111.153" height="9.681" transform="translate(76.235 149.264)" fill="#f82246"/>
      <rect id="Rectangle_882" data-name="Rectangle 882" width="111.153" height="9.681" transform="translate(76.235 149.264)" opacity="0.1"/>
      <rect id="Rectangle_883" data-name="Rectangle 883" width="88.878" height="9.681" transform="translate(253.33 175.541)" fill="#f82246"/>
      <rect id="Rectangle_884" data-name="Rectangle 884" width="88.878" height="9.681" transform="translate(253.33 175.541)" opacity="0.1"/>
      <rect id="Rectangle_885" data-name="Rectangle 885" width="144.711" height="3.035" transform="translate(76.235 168.185)" fill="#263238"/>
      <rect id="Rectangle_886" data-name="Rectangle 886" width="29.74" height="3.035" transform="translate(76.235 18.395)" fill="#263238"/>
      <rect id="Rectangle_887" data-name="Rectangle 887" width="121.959" height="3.035" transform="translate(76.235 180.522)" fill="#263238"/>
      <rect id="Rectangle_888" data-name="Rectangle 888" width="111.153" height="9.681" transform="translate(76.235 208.904)" fill="#f82246"/>
      <rect id="Rectangle_889" data-name="Rectangle 889" width="111.153" height="9.681" transform="translate(76.235 208.904)" opacity="0.1"/>
      <rect id="Rectangle_890" data-name="Rectangle 890" width="144.711" height="3.035" transform="translate(76.235 227.837)" fill="#263238"/>
      <rect id="Rectangle_891" data-name="Rectangle 891" width="121.959" height="3.035" transform="translate(76.235 240.174)" fill="#263238"/>
      <rect id="Rectangle_892" data-name="Rectangle 892" width="88.878" height="3.035" transform="translate(253.33 194.339)" fill="#263238"/>
      <rect id="Rectangle_893" data-name="Rectangle 893" width="72.466" height="3.035" transform="translate(253.33 206.676)" fill="#263238"/>
      <path id="Path_595" data-name="Path 595" d="M404.928,291.432H298.12V160.22H404.928ZM299.956,289.6H403.092V162.056H299.956Z" transform="translate(-53.565 -47.121)" fill="#f82246"/>
      <path id="Path_596" data-name="Path 596" d="M340.877,138.682a6.756,6.756,0,1,1,4.773-11.529h0a6.756,6.756,0,0,1-4.773,11.529Zm0-12.349a5.605,5.605,0,1,0,3.965,1.64h0a5.569,5.569,0,0,0-3.965-1.64Z" transform="translate(-45.507 -54.968)" fill="#f82246"/>
      <rect id="Rectangle_894" data-name="Rectangle 894" width="1.15" height="7.796" transform="translate(300.967 83.366) rotate(-45)" fill="#f82246"/>
      <rect id="Rectangle_895" data-name="Rectangle 895" width="1.15" height="2.864" transform="translate(299.542 81.944) rotate(-45)" fill="#f82246"/>
      <path id="Path_597" data-name="Path 597" d="M164.42,157.541a3.173,3.173,0,1,1,2.24-5.422h0a3.182,3.182,0,0,1,0,4.492A3.145,3.145,0,0,1,164.42,157.541Zm0-5.667a2.567,2.567,0,1,0,1.762.734h0A2.448,2.448,0,0,0,164.42,151.875Z" transform="translate(-84.207 -49.142)" fill="#f82246"/>
      <rect id="Rectangle_896" data-name="Rectangle 896" width="0.685" height="3.574" transform="translate(82.719 108.214) rotate(-45)" fill="#f82246"/>
      <rect id="Rectangle_897" data-name="Rectangle 897" width="0.453" height="1.31" transform="translate(82.15 107.501) rotate(-44.99)" fill="#f82246"/>
      <path id="Path_612" data-name="Path 612" d="M186.741,154.725a3.953,3.953,0,1,1-1.153-2.8A3.965,3.965,0,0,1,186.741,154.725Z" transform="translate(-80.276 -49.239)" fill="#f82246" opacity="0.7"/>
      <path id="Path_613" data-name="Path 613" d="M203.271,154.725a3.953,3.953,0,1,1-1.153-2.8A3.965,3.965,0,0,1,203.271,154.725Z" transform="translate(-76.575 -49.239)" fill="#f82246" opacity="0.7"/>
      <path id="Path_614" data-name="Path 614" d="M219.8,154.725a3.953,3.953,0,1,1-1.153-2.8,3.965,3.965,0,0,1,1.153,2.8Z" transform="translate(-72.874 -49.239)" fill="#f82246" opacity="0.7"/>
      <path id="Path_615" data-name="Path 615" d="M236.331,154.725a3.953,3.953,0,1,1-1.153-2.8,3.965,3.965,0,0,1,1.153,2.8Z" transform="translate(-69.174 -49.239)" fill="#f82246" opacity="0.7"/>
      <path id="Path_616" data-name="Path 616" d="M252.861,154.725a3.953,3.953,0,1,1-1.153-2.8A3.965,3.965,0,0,1,252.861,154.725Z" transform="translate(-65.473 -49.239)" fill="#f82246" opacity="0.7"/>
    </g>
    <g id="freepik--Plants--inject-4" transform="translate(75.574 378.086)">
      <path id="Path_617" data-name="Path 617" d="M111.831,346.592c-4.027-4.969-11.835-8.286-20.4-9.889.661,2.448.159,4.712-1.285,5.263s-3.782-1.114-4.834-3.867a8.567,8.567,0,0,1-.539-2.289c-8.567-.7-17.269.294-23.021,3.06,0,0,5.642,5.091,12.031,18.456h.587c4.137,0,7.466,2.044,7.441,4.467,0,1.762-1.824,3.268-4.406,3.929.33.857.673,1.738,1,2.631,6.119,16.486,22.324,4.565,22.177-6.707C100.6,361.633,120.875,357.741,111.831,346.592Z" transform="translate(-61.75 -315.003)" fill="#f82246"/>
      <path id="Path_618" data-name="Path 618" d="M67.5,340.122,67,340Z" transform="translate(-60.575 -314.017)" fill="#263238"/>
      <path id="Path_619" data-name="Path 619" d="M124.563,396.876c-.355-.881-.893-2.178-1.652-3.831A111.556,111.556,0,0,0,99.951,360.5h0a95.113,95.113,0,0,0-7.343-6.389c-.147-2.044,0-7.5,5.042-10.635,0,0-5.569.832-6.364,9.607A88.853,88.853,0,0,0,67.42,340.1a93.626,93.626,0,0,1,29.153,19.007,11.969,11.969,0,0,0-10.232,7.221c.257-.343,4.528-6.119,11.676-5.838l1.224,1.285a99.3,99.3,0,0,1,20.806,31.27c.661,1.554,1.3,3.17,1.9,4.81a1.383,1.383,0,0,0,2.68-.465,1.53,1.53,0,0,0-.061-.514Z" transform="translate(-60.481 -313.995)" fill="#263238"/>
      <path id="Path_620" data-name="Path 620" d="M122.036,348.34c2.717-5.789,9.485-10.892,17.416-14.5-.061,2.533.967,4.614,2.509,4.8s3.4-1.995,3.757-4.9a8.26,8.26,0,0,0,0-2.338c8.2-2.766,16.828-3.88,23.082-2.582,0,0-4.247,6.291-7.233,20.806l-.575.135c-4,1.04-6.756,3.782-6.119,6.119.441,1.713,2.558,2.741,5.226,2.766-.122.906-.233,1.836-.343,2.79-1.934,17.465-20.573,9.791-23.144-1.224C136.551,360.236,115.941,361.337,122.036,348.34Z" transform="translate(-48.506 -316.641)" fill="#f82246"/>
      <path id="Path_621" data-name="Path 621" d="M155,331.889l.4-.269Z" transform="translate(-40.873 -315.893)" fill="#f5f5f5"/>
      <path id="Path_622" data-name="Path 622" d="M139.778,355.818a94.4,94.4,0,0,1,22.03-23.5,88.228,88.228,0,0,0-19.2,17.758,14.687,14.687,0,0,0-2.778-5.006l-.073-.086a7.27,7.27,0,0,0-5.63-2.7,10.281,10.281,0,0,1,5.63,4.381.649.649,0,0,1,.073.122,13.462,13.462,0,0,1,1.75,4.6c-.6.783-1.224,1.554-1.75,2.338a.428.428,0,0,0-.073.11c-1.322,1.824-2.57,3.672-3.672,5.507q-2.215,3.537-4.014,7.05a.171.171,0,0,0,0,.122,112.217,112.217,0,0,0-10.1,28.272c-.539,2.582-.857,4.59-1.028,5.813a1.371,1.371,0,0,0,1.224,1.542h.171a1.371,1.371,0,0,0,1.359-1.224c.233-2.093.514-4.137.857-6.119a98.4,98.4,0,0,1,7.527-24.783.525.525,0,0,1,0-.147,96.534,96.534,0,0,1,4.9-9.4h0c.294-.526.612-1.04.93-1.554a11.271,11.271,0,0,1,1.9-.416h.073a14.833,14.833,0,0,1,10.77,3.28,11.884,11.884,0,0,0-10.77-4.7H139.8a7.639,7.639,0,0,0-.82.135c.269-.428.551-.845.82-1.224Z" transform="translate(-48.501 -315.736)" fill="#263238"/>
      <path id="Path_623" data-name="Path 623" d="M134.024,348.73c-1.224-6.279-6.67-12.826-13.536-18.187-.526,2.448-2.019,4.259-3.561,4.076s-2.839-2.729-2.448-5.667a8.409,8.409,0,0,1,.587-2.264c-7.343-4.6-15.458-7.71-21.846-7.918,0,0,2.656,7.123,2.154,21.932l.539.257c3.672,1.946,5.679,5.263,4.541,7.343-.832,1.567-3.121,2.056-5.728,1.456-.1.918-.2,1.848-.318,2.8-2.2,17.428,17.7,14.356,22.776,4.284C117.122,356.894,136.9,362.793,134.024,348.73Z" transform="translate(-54.705 -318.77)" fill="#f82246"/>
      <path id="Path_624" data-name="Path 624" d="M134.024,348.73c-1.224-6.279-6.67-12.826-13.536-18.187-.526,2.448-2.019,4.259-3.561,4.076s-2.839-2.729-2.448-5.667a8.409,8.409,0,0,1,.587-2.264c-7.343-4.6-15.458-7.71-21.846-7.918,0,0,2.656,7.123,2.154,21.932l.539.257c3.672,1.946,5.679,5.263,4.541,7.343-.832,1.567-3.121,2.056-5.728,1.456-.1.918-.2,1.848-.318,2.8-2.2,17.428,17.7,14.356,22.776,4.284C117.122,356.894,136.9,362.793,134.024,348.73Z" transform="translate(-54.705 -318.77)" fill="#fff" opacity="0.2"/>
      <path id="Path_625" data-name="Path 625" d="M97.4,323.065l-.33-.355Z" transform="translate(-53.843 -317.888)" fill="#263238"/>
      <path id="Path_626" data-name="Path 626" d="M113.148,346.957c.82-1.873,3.476-6.646,9.375-7.1,0,0-5.312-1.824-10.073,5.581a88.4,88.4,0,0,0-14.76-22.03,94.5,94.5,0,0,1,16.669,29.838,11.774,11.774,0,0,0-12.4,1.677,16.18,16.18,0,0,1,4.051-1.224,13.084,13.084,0,0,1,9,1.456l.551,1.738a99.93,99.93,0,0,1,3.782,39.923c-.086.844-.184,1.689-.294,2.546a1.383,1.383,0,0,0,1.224,1.567h.159a1.371,1.371,0,0,0,1.371-1.224c.073-.722.159-1.677.22-2.888a111.006,111.006,0,0,0-5.348-40.865C115.669,353.028,114.518,349.993,113.148,346.957Z" transform="translate(-53.704 -317.731)" fill="#263238"/>
      <path id="Path_627" data-name="Path 627" d="M139.558,387.184v.355h0l-.1,1.493h0l-1.775,26.925a3.048,3.048,0,0,1-3.047,2.852H105.779a3.048,3.048,0,0,1-3.047-2.852l-1.713-26.925h0l-.1-1.493h0v-.355a3.586,3.586,0,0,1,.122-1.089h0v-.11a1.289,1.289,0,0,1,.135-.379,3.666,3.666,0,0,1,.184-.379v-.086a.906.906,0,0,1,.147-.208.5.5,0,0,1,.086-.135l.2-.233a3.452,3.452,0,0,1,.453-.428l.2-.147a3.537,3.537,0,0,1,1.628-.6h32.445a3.562,3.562,0,0,1,2.105,1.126l.2.232a.5.5,0,0,1,.086.135.906.906,0,0,1,.147.208.292.292,0,0,1,0,.086,3.658,3.658,0,0,1,.2.379,1.4,1.4,0,0,0,.135.379v.11h0a3.586,3.586,0,0,1,.184,1.138Z" transform="translate(-52.981 -304.303)" fill="#263238"/>
      <path id="Path_628" data-name="Path 628" d="M139.447,386.077a3.574,3.574,0,0,0-3.464-2.717H104.431a3.6,3.6,0,0,0-3.464,2.717l-.1,1.481.159,1.481a3.6,3.6,0,0,0,3.464,2.7h31.552a3.574,3.574,0,0,0,3.464-2.7l.1-1.493Z" transform="translate(-52.992 -304.31)" fill="#263238"/>
      <path id="Path_629" data-name="Path 629" d="M140.465,390.091H100.334L99.6,383.36h41.587Z" transform="translate(-53.276 -304.31)" fill="#263238"/>
    </g>
    <g id="freepik--Character--inject-4" transform="translate(204.824 147.064)">
      <path id="Path_630" data-name="Path 630" d="M228.761,223.726l2.754,4.9a1.371,1.371,0,0,1,.159.539l.649,6.756a1.371,1.371,0,0,1-.306,1l-1.615,1.922c-.282.318-9.093.135-9.093.135a1.359,1.359,0,0,1-1.3-1.444l.551-8.567a1.4,1.4,0,0,1,.135-.49l2.325-4.981a1.371,1.371,0,0,1,1.334-.783l3.317.245a1.322,1.322,0,0,1,1.089.771Z" transform="translate(-155.57 -109.254)" fill="#ff8b7b"/>
      <path id="Path_631" data-name="Path 631" d="M220.711,355.075c-14.687,17.281-32.726,36.349-32.726,36.349l-11.394-.379s14.16-26.228,27.733-47.8Z" transform="translate(-165.29 -82.269)" fill="#ff8b7b"/>
      <path id="Path_632" data-name="Path 632" d="M264.715,287.325s-14.552,35.884-17.979,42.762c-6.609,13.23-7.992,16.033-13.732,26.521-2.154,3.929-6.768,10.024-12.373,16.841-1.6,1.934-3.268,3.929-4.993,5.948L199.25,367.562q1.964-3.1,3.892-6.119c5.605-8.567,10.844-15.8,14.687-19.386,0,0,12.312-63.066,20.928-89.1,2.032-6.119,8.445-16.253,9.644-18.358,0,0,20.867,36.2,22.189,38.1S264.715,287.325,264.715,287.325Z" transform="translate(-160.217 -106.591)" fill="#f82246"/>
      <path id="Path_633" data-name="Path 633" d="M261.16,273.316s-3.843,9.791-9.032,20.108c0,0-.881-14.393-15.788-39.164C259.386,256.194,261.16,273.316,261.16,273.316Z" transform="translate(-151.913 -102.19)" opacity="0.3"/>
      <path id="Path_634" data-name="Path 634" d="M180.8,377.08l-5.434,8.836,7.27,5.74,6.621-9.179Z" transform="translate(-165.563 -74.693)" fill="#ff8b7b"/>
      <path id="Path_635" data-name="Path 635" d="M197.58,346.935l15.678,11.284,4.59-5.41L199.82,343.3Z" transform="translate(-160.591 -82.256)" opacity="0.2"/>
      <path id="Path_636" data-name="Path 636" d="M182.488,390.5a.269.269,0,0,1,0-.294.245.245,0,0,1,.257-.135c.184,0,4.455.441,5.63,1.872a1.359,1.359,0,0,1,.306.955.967.967,0,0,1-.624.906,4.553,4.553,0,0,1-3.035-1.163,18.053,18.053,0,0,1-2.533-2.142Zm.857.2c1.481,1.358,3.672,2.913,4.492,2.631.11,0,.257-.122.281-.477a.734.734,0,0,0-.2-.587,1.84,1.84,0,0,0-.355-.33,11.835,11.835,0,0,0-4.222-1.236Z" transform="translate(-163.979 -71.786)" fill="#f82246"/>
      <path id="Path_637" data-name="Path 637" d="M182.4,390.833a.257.257,0,0,1,0-.245c.086-.1,1.995-2.289,3.757-2.448a1.934,1.934,0,0,1,1.4.465c.526.465.5.881.355,1.126-.514,1.114-3.953,1.518-5.324,1.224,0,0-.073,0-.086-.061A.221.221,0,0,1,182.4,390.833Zm4.785-1.9a1.371,1.371,0,0,0-.906-.245,5.85,5.85,0,0,0-3.047,1.848c1.53.122,3.953-.367,4.32-1,0,0,.11-.233-.245-.526l-.122-.073Z" transform="translate(-163.997 -72.218)" fill="#f82246"/>
      <path id="Path_638" data-name="Path 638" d="M185.841,390.174l-9.51-6.768a.942.942,0,0,0-1.224.061l-7.221,6.511a1.567,1.567,0,0,0-.135,2.215l.245.22c3.476,2.374,6.646,4.357,10.917,7.343,5.03,3.586,3.329,3.28,9.179,7.588,3.537,2.582,7.074-1,5.7-2.276-6.291-5.8-5.52-8.408-6.425-12.79a3.818,3.818,0,0,0-1.53-2.105Z" transform="translate(-167.357 -73.321)" fill="#263238"/>
      <path id="Path_639" data-name="Path 639" d="M282.359,147.032c.086.7-.2,1.322-.661,1.383s-.942-.49-1.016-1.224.208-1.322.661-1.371S282.3,146.322,282.359,147.032Z" transform="translate(-141.989 -126.468)" fill="#263238"/>
      <path id="Path_640" data-name="Path 640" d="M280.89,145.99a1.579,1.579,0,0,0,1.615-1.04,2.938,2.938,0,0,1-.4,1.138.869.869,0,0,1-1.028.355Z" transform="translate(-141.939 -126.662)" fill="#263238"/>
      <path id="Path_641" data-name="Path 641" d="M280.616,148.42l4.149,4.247a4.9,4.9,0,0,1-4.345.7Z" transform="translate(-142.045 -125.885)" fill="#ba4d3c"/>
      <path id="Path_642" data-name="Path 642" d="M260.2,171.929s6.009-.844,5.507-11.945c0,0,5.483-2.754,9.216.392s-2.852,11.015,1.75,14.124S260.2,171.929,260.2,171.929Z" transform="translate(-146.571 -123.546)" fill="#ff8b7b"/>
      <path id="Path_643" data-name="Path 643" d="M273.929,163.12l-4.149.245s.942,3.451,3.231,4.712C273.3,166.424,273.794,164.687,273.929,163.12Z" transform="translate(-144.427 -122.594)" opacity="0.2"/>
      <path id="Path_644" data-name="Path 644" d="M259.751,149.871c.8,9.387.93,13.389,5.8,18.1,7.343,7.086,18.689,4.063,20.708-5.385,1.824-8.494.208-22.4-9.093-25.971a12.863,12.863,0,0,0-17.416,13.255Z" transform="translate(-146.686 -128.719)" fill="#ff8b7b"/>
      <path id="Path_645" data-name="Path 645" d="M282.409,142.969a.379.379,0,0,1-.294.2,2.937,2.937,0,0,0-2.289,1.359.37.37,0,1,1-.649-.355,3.672,3.672,0,0,1,2.876-1.738.367.367,0,0,1,.4.33h0A.4.4,0,0,1,282.409,142.969Z" transform="translate(-142.333 -127.226)" fill="#263238"/>
      <path id="Path_646" data-name="Path 646" d="M258.28,170.917l1.358-2.644a2.925,2.925,0,0,1,3.158-1.554c4.9.906,16.645,3.231,18.26,5.128a7.71,7.71,0,0,1,1.885,5.067Z" transform="translate(-147.001 -121.8)" fill="#f82246"/>
      <g id="Group_56" data-name="Group 56" transform="translate(111.279 44.868)" opacity="0.7">
        <path id="Path_647" data-name="Path 647" d="M258.28,170.917l1.358-2.644a2.925,2.925,0,0,1,3.158-1.554c4.9.906,16.645,3.231,18.26,5.128a7.71,7.71,0,0,1,1.885,5.067Z" transform="translate(-258.28 -166.668)" fill="#fff" opacity="0.5"/>
      </g>
      <path id="Path_648" data-name="Path 648" d="M253.221,193.75l-11.015,5.189c-4.9,2.509-7.7,5.826-9.693,15.972-2.081,10.684-3.806,20.806-3.806,20.806-3.1,2.448-7.282-.2-7.282-.2a103.418,103.418,0,0,1,1.15-34.807c2.325-11.529,25.493-27.121,37.438-30.842a20.807,20.807,0,0,1,6.021-.942l2.105.281L254.127,194.4Z" transform="translate(-155.466 -121.293)" fill="#f82246"/>
      <path id="Path_649" data-name="Path 649" d="M253.221,193.75l-11.015,5.189c-4.9,2.509-7.7,5.826-9.693,15.972-2.081,10.684-3.806,20.806-3.806,20.806-3.1,2.448-7.282-.2-7.282-.2a103.418,103.418,0,0,1,1.15-34.807c2.325-11.529,25.493-27.121,37.438-30.842a20.807,20.807,0,0,1,6.021-.942l2.105.281L254.127,194.4Z" transform="translate(-155.466 -121.293)" opacity="0.6"/>
      <path id="Path_650" data-name="Path 650" d="M292.985,211.551c3.77-10.758,4.381-11.088,3.586-16.07a67.8,67.8,0,0,0-1.518-6.976c-4.651-15.482-17.22-16.241-31.135-19.007s-15.641,4.112-16.327,22.03S246,238.451,246,238.451h0a62.185,62.185,0,0,0,30.462,7.967h9.669a82.811,82.811,0,0,1,1.946-15.152C292.985,211.551,289.9,220.424,292.985,211.551Z" transform="translate(-149.75 -121.298)" fill="#f82246"/>
      <g id="Group_57" data-name="Group 57" transform="translate(96.25 47.609)" opacity="0.6">
        <path id="Path_651" data-name="Path 651" d="M292.985,211.551c3.77-10.758,4.381-11.088,3.586-16.07a67.8,67.8,0,0,0-1.518-6.976c-4.651-15.482-17.22-16.241-31.135-19.007s-15.641,4.112-16.327,22.03S246,238.451,246,238.451h0a62.185,62.185,0,0,0,30.462,7.967h9.669a82.811,82.811,0,0,1,1.946-15.152C292.985,211.551,289.9,220.424,292.985,211.551Z" transform="translate(-246 -168.907)"/>
      </g>
      <path id="Path_652" data-name="Path 652" d="M283.419,156.777s11.015-18.872,2.178-23.058c-14.221-6.731-28.5-4.724-36.716,9.461-6.731,11.676-3.549,24.025,10.452,31.441,18.7,9.926,21.7-6.841,20.806-14.687C280.163,159.91,281.962,159.837,283.419,156.777Z" transform="translate(-149.865 -130.007)" fill="#263238"/>
      <path id="Path_653" data-name="Path 653" d="M276.3,148.747a7.184,7.184,0,0,1,2.558,4.9c.2,2.546-2.2,3.341-4.357,2.24-1.946-.991-4.357-3.525-3.549-5.9a3.28,3.28,0,0,1,5.348-1.236Z" transform="translate(-144.201 -126.016)" fill="#ff8b7b"/>
      <path id="Path_654" data-name="Path 654" d="M285.92,359.371c-1.7,11.382-5.287,21.393-7.833,31.331q-.979,3.818-1.97,7.4l-22.03-1.995c.392-2.374.808-4.785,1.224-7.209a309.167,309.167,0,0,1,7.013-31.613s-4.088-39.335-5.153-55.185a.515.515,0,0,1,0-.2c-.918-13.463-1.836-24.282-1.836-24.282s-10.268-4-16.131-12.239a20.806,20.806,0,0,1-3.488-7.588,17.94,17.94,0,0,1-.514-3.77c-.514-15.36,13.242-27.892,13.242-27.892a85.121,85.121,0,0,0,31.331,7.172l8.824.306S292.553,315.079,285.92,359.371Z" transform="translate(-152.171 -108.485)" fill="#f82246"/>
      <path id="Path_655" data-name="Path 655" d="M319.851,145.274c-.22-.416,7.466-11.174,7.466-11.174l2.619,10.6-1.028,1.505a6.009,6.009,0,0,1-4.027,2.79S319.875,145.323,319.851,145.274Z" transform="translate(-133.218 -129.091)" fill="#ff8b7b"/>
      <path id="Path_656" data-name="Path 656" d="M326.041,134.51l8.567-2.13-.184,6.487a5.777,5.777,0,0,1-3.3,5.079l-2.448,1.163S323.752,139.748,326.041,134.51Z" transform="translate(-131.967 -129.476)" fill="#ff8b7b"/>
      <path id="Path_657" data-name="Path 657" d="M335.94,131.941a1.126,1.126,0,0,1,1.383,1.53h0a1.334,1.334,0,0,1-1.04.906l-5.887,1.077-.906-1.9Z" transform="translate(-131.059 -129.587)" fill="#ff8b7b"/>
      <path id="Path_658" data-name="Path 658" d="M317.95,178.918c9.02-8.873,19.007-31.7,19.007-31.7.184-2.142-4.785-3.782-6.829-3.99h0c-6.45,6.988-17.636,24.331-19.46,26.2a6.281,6.281,0,0,1-1.016.759,1.591,1.591,0,0,1-.355.171l-.747.318c-1.358.612-2.717,1.224-4.137,1.75-5.618,2.252-.734.551-6.682,2.313s-12.08,3.5-18.015,5.018l-.086.073c-4,.967-6.45,6.866-5.471,11.015a7.551,7.551,0,0,0,9.008,5.85S314.584,186.641,317.95,178.918Z" transform="translate(-143.494 -127.047)" fill="#f82246"/>
      <path id="Path_659" data-name="Path 659" d="M317.95,178.918c9.02-8.873,19.007-31.7,19.007-31.7.184-2.142-4.785-3.782-6.829-3.99h0c-6.45,6.988-17.636,24.331-19.46,26.2a6.281,6.281,0,0,1-1.016.759,1.591,1.591,0,0,1-.355.171l-.747.318c-1.358.612-2.717,1.224-4.137,1.75-5.618,2.252-.734.551-6.682,2.313s-12.08,3.5-18.015,5.018l-.086.073c-4,.967-6.45,6.866-5.471,11.015a7.551,7.551,0,0,0,9.008,5.85S314.584,186.641,317.95,178.918Z" transform="translate(-143.494 -127.047)" opacity="0.6"/>
      <path id="Path_660" data-name="Path 660" d="M251.094,154.59c0,4.565-3.06,8.567-6.535,11.541s-7.4,5.385-10.6,8.653c-12.887,13.169-12.655,22.458-11.015,26.693.379-3.427,9.681-12.435,9.681-12.435-2.032,2.8-3.488,5.63-5.287,8.567-3.353,5.483-5.752,18.982-.2,24.061,0,0,4.651-10.611,13.279-13.585,14.944-5.153-.649-2.839,3.672,9.791,1.995-4.9,13.977-8.078,18.358-11.015,7.062-4.6,9.24-12.141,8-20.475,2.448,3.794,2.387,10.819.416,14.858,3.121-1.7,11.823-.563,10.219-28.308a8.764,8.764,0,0,0,2.778,4.7c2.864,2.595,8.2,1.407,10.329-.441-5.422-1.946-8.151-8.347-8.885-22.03C276.012,148.874,261.546,150.22,251.094,154.59Z" transform="translate(-155.089 -125.335)" fill="#263238"/>
      <path id="Path_661" data-name="Path 661" d="M271.984,366.908c-6.315,22.776-16.486,50.8-16.486,50.8l-8.959-2.338s2.668-29.875,6.034-50.314Z" transform="translate(-149.63 -77.384)" fill="#ff8b7b"/>
      <path id="Path_662" data-name="Path 662" d="M255.841,409.284a.257.257,0,0,1-.171-.233.245.245,0,0,1,.159-.245c.171-.073,4.186-1.628,5.875-.869a1.322,1.322,0,0,1,.7.71.93.93,0,0,1-.147,1.089,4.491,4.491,0,0,1-3.231.331,18.028,18.028,0,0,1-3.182-.783Zm.857-.22c1.934.551,4.6.93,5.2.318.073-.073.171-.22,0-.551a.673.673,0,0,0-.441-.428,1.556,1.556,0,0,0-.465-.135A11.861,11.861,0,0,0,256.7,409.064Z" transform="translate(-147.586 -67.831)" fill="#f82246"/>
      <path id="Path_663" data-name="Path 663" d="M255.715,409.8a.232.232,0,0,1-.073-.245c0-.122.747-2.937,2.252-3.843a1.934,1.934,0,0,1,1.469-.22c.673.184.832.563.82.844,0,1.224-2.839,3.133-4.186,3.513a.171.171,0,0,1-.11,0,.208.208,0,0,1-.171-.049Zm3.4-3.855a1.346,1.346,0,0,0-.918.183,6,6,0,0,0-1.885,3.035c1.42-.575,3.366-2.117,3.4-2.852,0-.061,0-.245-.453-.355Z" transform="translate(-147.594 -68.346)" fill="#f82246"/>
      <path id="Path_664" data-name="Path 664" d="M258.064,407.982l-11.541-1.75a.942.942,0,0,0-1.016.6l-3.488,9.069a1.579,1.579,0,0,0,.881,2.032l.318.086c4.173.551,7.906.881,13.1,1.677,6.119.918,4.443,1.42,11.615,2.607,4.32.71,5.862-4.1,4.063-4.614-8.249-2.325-8.738-4.993-11.529-8.494A3.672,3.672,0,0,0,258.064,407.982Z" transform="translate(-150.665 -68.169)" fill="#263238"/>
      <path id="Path_665" data-name="Path 665" d="M250.89,369.588c0-.122,18.823,1.9,18.823,1.9l1.3-4.577L251.6,365.06Z" transform="translate(-148.656 -77.384)" opacity="0.2"/>
    </g>
  </g>
</svg>
