<svg xmlns="http://www.w3.org/2000/svg" width="40.894" height="30.732" viewBox="0 0 40.894 30.732">
  <g id="Layer_2" data-name="Layer 2" transform="translate(0 0.016)">
    <g id="Layer_1" data-name="Layer 1" transform="translate(0 -0.016)">
      <path id="Path_605" data-name="Path 605" d="M0,3.271c.064-.213.123-.427.193-.64A3.84,3.84,0,0,1,3.78-.006C5.19-.022,6.6-.015,8.012-.015H36.918A3.814,3.814,0,0,1,40.769,2.9a4.661,4.661,0,0,1,.118,1.067c.011,2.027.006,4.053,0,6.08a1.3,1.3,0,0,1-1.41,1.461,3.84,3.84,0,1,0,0,7.68,1.3,1.3,0,0,1,1.411,1.46v6.08a3.834,3.834,0,0,1-3.972,3.986H3.983a3.813,3.813,0,0,1-3.915-3.14A.606.606,0,0,0,0,27.439V20.156a1.547,1.547,0,0,1,1.522-.981,3.828,3.828,0,0,0,.042-7.637A1.575,1.575,0,0,1,0,10.553Zm2.56,5.79a6.473,6.473,0,0,1,5.1,5.874,6.223,6.223,0,0,1-.9,3.708,6.448,6.448,0,0,1-4.193,3V26.75a1.29,1.29,0,0,0,1.422,1.406H36.907a1.294,1.294,0,0,0,1.421-1.446V21.99c0-.118-.011-.236-.016-.347a6.467,6.467,0,0,1-5.083-5.867,6.237,6.237,0,0,1,.9-3.71,6.475,6.475,0,0,1,4.2-3V4.162c0-1.152-.448-1.606-1.583-1.606H3.777a1.249,1.249,0,0,0-1.213,1.2C2.546,5.516,2.56,7.276,2.56,9.061Z" transform="translate(0 0.016)"/>
      <path id="Path_606" data-name="Path 606" d="M152.219,43.75l2.393.9-7.658,20.478-2.394-.9C147.111,57.4,149.659,50.591,152.219,43.75Z" transform="translate(-129.14 -39.082)"/>
      <path id="Path_607" data-name="Path 607" d="M102.821,83.737a3.84,3.84,0,1,1,3.714-3.8,3.842,3.842,0,0,1-3.714,3.8Zm.029-2.56a1.255,1.255,0,0,0,1.28-1.251,1.28,1.28,0,0,0-1.28-1.3,1.3,1.3,0,0,0-1.27,1.28A1.28,1.28,0,0,0,102.85,81.177Z" transform="translate(-88.462 -67.949)"/>
      <path id="Path_608" data-name="Path 608" d="M226.819,150.639A3.84,3.84,0,1,1,223,154.472,3.84,3.84,0,0,1,226.819,150.639Zm-1.267,3.847a1.28,1.28,0,0,0,1.274,1.266,1.3,1.3,0,0,0,1.28-1.28,1.28,1.28,0,0,0-1.307-1.28,1.251,1.251,0,0,0-1.247,1.294Z" transform="translate(-199.213 -134.57)"/>
    </g>
  </g>
</svg>
